<svg height="60pt" viewBox="0 0 464.00002 464" width="60pt" xmlns="http://www.w3.org/2000/svg"><path d="m189.367188 207.5c-15.179688-36.753906-52.3125-56.292969-82.941407-43.644531-30.628906 12.648437-43.152343 52.695312-27.972656 89.449219 15.175781 36.753906 52.308594 56.296874 82.9375 43.648437s43.152344-52.699219 27.976563-89.453125zm0 0" fill="#d6d6d4"/><path d="m176.007812 235.992188c0 19.882812-16.117187 36-36 36-19.882812 0-36-16.117188-36-36 0-19.882813 16.117188-36 36-36 19.882813 0 36 16.117187 36 36zm0 0" fill="#f98500"/><path d="m108.699219 191.847656c-28.117188-28.117187-69.90625-31.917968-93.335938-8.484375-23.433593 23.429688-19.632812 65.21875 8.484375 93.335938 28.117188 28.117187 69.90625 31.917969 93.335938 8.488281 23.433594-23.433594 19.632812-65.222656-8.484375-93.339844zm0 0" fill="#e0e0de"/><path d="m105.105469 237.105469c0 19.878906-16.121094 36-36 36-19.882813 0-36-16.121094-36-36 0-19.882813 16.117187-36 36-36 19.878906 0 36 16.117187 36 36zm0 0" fill="#f98500"/><path d="m128 432h208v32h-208zm0 0" fill="#e04343"/><path d="m400 236c0 37.554688-30.445312 68-68 68s-68-30.445312-68-68 30.445312-68 68-68 68 30.445312 68 68zm0 0" fill="#b0564c"/><path d="m332 280c-24.300781 0-44-19.699219-44-44s19.699219-44 44-44 44 19.699219 44 44c-.027344 24.289062-19.710938 43.972656-44 44zm0-72c-15.464844 0-28 12.535156-28 28s12.535156 28 28 28 28-12.535156 28-28-12.535156-28-28-28zm0 0" fill="#b9685f"/><path d="m403.226562 158.582031 60.773438 52.023438-93.644531 109.394531-60.773438-52.027344zm0 0" fill="#3d4d63"/><path d="m336 432h-208c-75.222656-18.808594-127.99609375-86.394531-128-163.9375v-28.0625h464v28.0625c-.003906 77.542969-52.777344 145.128906-128 163.9375zm0 0" fill="#e94f4f"/><path d="m360 240v28.0625c-.003906 77.542969-52.777344 145.128906-128 163.9375h104c75.222656-18.808594 127.996094-86.394531 128-163.9375v-28.0625zm0 0" fill="#e04343"/><path d="m32.136719 316.089844c-2.058594-5.878906-3.734375-11.878906-5.015625-17.96875l15.65625-3.296875c1.144531 5.421875 2.636718 10.765625 4.460937 16zm0 0" fill="#f26666"/><path d="m99.863281 395.542969c-26.332031-14.203125-47.582031-36.253907-60.800781-63.09375l14.335938-7.097657c11.765624 23.878907 30.683593 43.496094 54.121093 56.121094zm0 0" fill="#f26666"/><path d="m464 32h-336v-24l336-8zm0 0" fill="#e94f4f"/><path d="m291.28125 59.921875 172.71875 4.078125v-32h-336v24l36.238281.878906 31.761719.722656" fill="#cf3a3a"/><path d="m167.953125 240c0-1.03125.046875-2.105469.046875-3.199219 0-25.601562-8-25.601562-8-51.199219 0-25.601562 8-25.601562 8-51.203124 0-25.597657-8-25.597657-8-51.152344-.167969-9.261719 1.355469-18.480469 4.496094-27.199219l55.863281-.800781 3.640625 184.515625zm0 0" fill="#ffb531"/><path d="m295.953125 240c0-1.03125.046875-2.105469.046875-3.199219 0-25.601562-8-25.601562-8-51.199219 0-25.601562 8-25.601562 8-51.203124 0-25.597657-8-25.597657-8-51.152344 0-25.550782 8-25.597656 8-51.199219h-96c0 25.601563-8 25.601563-8 51.199219 0 25.601562 8 25.601562 8 51.152344 0 25.554687-8 25.601562-8 51.203124 0 25.597657 8 25.597657 8 51.199219 0 1.128907 0 2.199219-.046875 3.199219zm0 0" fill="#ffb531"/><g fill="#f7a116"><path d="m207.152344 238.519531-16-.503906c0-.953125.046875-1.953125.046875-2.992187.207031-7.898438-1.011719-15.773438-3.605469-23.238282-3.050781-9.015625-4.511719-18.488281-4.320312-28-.175782-9.519531 1.3125-18.996094 4.398437-28 2.605469-7.453125 3.851563-15.308594 3.671875-23.199218.203125-7.890626-1.019531-15.75-3.609375-23.203126-3.054687-9.011718-4.515625-18.484374-4.320313-28-.167968-9.515624 1.320313-18.992187 4.402344-28 2.609375-7.449218 3.851563-15.308593 3.671875-23.199218h16c.167969 9.519531-1.324219 18.992187-4.410156 28-2.605469 7.449218-3.847656 15.308594-3.664063 23.199218-.203124 7.886719 1.015626 15.746094 3.601563 23.203126 3.058594 9.007812 4.523437 18.484374 4.328125 28 .164062 9.515624-1.324219 18.988281-4.398438 28-2.613281 7.445312-3.859374 15.304687-3.671874 23.199218-.199219 7.886719 1.019531 15.742188 3.597656 23.199219 3.058594 9.011719 4.523437 18.484375 4.328125 28 0 1.273437 0 2.421875-.046875 3.535156zm0 0"/><path d="m239.152344 238.566406-16-.511718c0-.949219.046875-1.949219.046875-2.992188.207031-7.898438-1.015625-15.773438-3.605469-23.238281-3.050781-9.011719-4.511719-18.488281-4.320312-28-.175782-9.519531 1.3125-18.992188 4.398437-28 2.605469-7.449219 3.851563-15.308594 3.671875-23.199219.207031-7.886719-1.015625-15.75-3.609375-23.199219-3.054687-9.011719-4.515625-18.488281-4.320313-28-.167968-9.519531 1.320313-18.996093 4.402344-28 2.609375-7.453125 3.851563-15.308593 3.671875-23.203125h16c.164063 9.519532-1.328125 18.996094-4.410156 28-2.605469 7.453125-3.847656 15.3125-3.664063 23.203125-.203124 7.886719 1.015626 15.746094 3.601563 23.199219 3.058594 9.007812 4.523437 18.484375 4.328125 28 .164062 9.515625-1.324219 18.988281-4.398438 28-2.617187 7.445312-3.859374 15.308594-3.671874 23.199219-.207032 7.898437 1.011718 15.773437 3.597656 23.238281 3.058594 9.011719 4.519531 18.488281 4.328125 28 0 1.234375 0 2.394531-.046875 3.503906zm0 0"/><path d="m303.152344 238.65625-16-.511719c0-.953125.046875-1.953125.046875-2.992187.203125-7.886719-1.019531-15.746094-3.605469-23.199219-3.054688-9.011719-4.519531-18.488281-4.320312-28-.175782-9.519531 1.3125-18.996094 4.398437-28 2.609375-7.449219 3.851563-15.308594 3.671875-23.199219.207031-7.890625-1.015625-15.75-3.609375-23.203125-3.054687-9.011719-4.515625-18.484375-4.320313-28-.167968-9.515625 1.320313-18.992187 4.402344-28 2.609375-7.449219 3.851563-15.308593 3.671875-23.199219h16c.164063 9.519532-1.324219 18.992188-4.410156 28-2.605469 7.449219-3.847656 15.308594-3.664063 23.199219-.203124 7.886719 1.015626 15.746094 3.601563 23.203125 3.058594 9.007813 4.523437 18.484375 4.328125 28 .164062 9.515625-1.324219 18.988282-4.398438 28-2.617187 7.445313-3.859374 15.304688-3.671874 23.199219-.203126 7.886719 1.015624 15.746094 3.597656 23.199219 3.058594 9.011718 4.519531 18.484375 4.328125 28 0 1.238281 0 2.390625-.046875 3.503906zm0 0"/><path d="m271.152344 238.609375-16-.503906c0-.953125.046875-1.953125.046875-2.992188.207031-7.902343-1.015625-15.773437-3.605469-23.242187-3.050781-9.011719-4.511719-18.484375-4.320312-28-.175782-9.515625 1.3125-18.992188 4.398437-28 2.605469-7.449219 3.851563-15.308594 3.671875-23.199219.203125-7.886719-1.019531-15.746094-3.609375-23.199219-3.054687-9.011718-4.515625-18.488281-4.320313-28-.164062-9.503906 1.324219-18.964844 4.402344-27.960937 2.609375-7.449219 3.851563-15.308594 3.671875-23.199219h16c.167969 9.519531-1.324219 18.992188-4.410156 28-2.605469 7.449219-3.847656 15.308594-3.664063 23.199219-.203124 7.886719 1.015626 15.746093 3.601563 23.199219 3.058594 9.011718 4.523437 18.488281 4.328125 28 .164062 9.519531-1.324219 18.992187-4.398438 28-2.613281 7.449218-3.859374 15.308593-3.671874 23.199218-.199219 7.886719 1.019531 15.746094 3.597656 23.203125 3.058594 9.011719 4.519531 18.484375 4.328125 28 0 1.230469 0 2.390625-.046875 3.496094zm0 0"/></g><path d="m464 264h-464v4.0625c0 4 .222656 8 .503906 11.9375h462.992188c.28125-3.960938.503906-7.929688.503906-11.9375zm0 0" fill="#ffb531"/></svg>