<?xml version="1.0" encoding="iso-8859-1"?>
<!-- Generator: Adobe Illustrator 19.0.0, SVG Export Plug-In . SVG Version: 6.00 Build 0)  -->
<svg version="1.1" id="Layer_1" xmlns="http://www.w3.org/2000/svg" xmlns:xlink="http://www.w3.org/1999/xlink" width="35px" height="35px" x="0px" y="0px"
	 viewBox="0 0 512.737 512.737" style="enable-background:new 0 0 512.737 512.737;" xml:space="preserve">
<g>
	<g>
		<path d="M493.551,19.568c-13.2-12.4-29.6-19.2-48.4-19.2c-32.8,0-70,19.6-107.2,56.8c-27.2,27.2-32,69.6-12.4,102.4l-316.4,300
			c-12,12-12.4,32,0,44c5.6,5.6,13.6,8.8,22,8.8s16.4-3.2,22-9.2l304.8-313.6c12,6.4,25.6,9.6,39.2,9.6c22.4,0,43.2-8.8,58.8-24.4
			c30-30,48.8-60.4,54.8-88.4C516.351,59.968,509.951,36.368,493.551,19.568z M502.751,84.768c-5.6,26.4-23.6,55.6-52.4,84.4
			c-14,14-33.2,22-53.2,22c-13.2,0-26.4-3.6-37.6-10c-1.6-0.8-3.6-0.8-4.8,0.8l-306.8,315.6c-4.4,4.4-10.4,6.8-16.4,6.8
			s-12-2.4-16-6.8c-8.8-8.8-8.8-23.6,0-32.4l318.4-302.4c1.6-1.2,1.6-3.6,0.4-5.2c-20-29.6-16-69.6,9.6-95.2
			c34.8-34.8,70.8-54,101.2-54c16.8,0,31.2,6,42.4,17.2C502.351,40.368,507.551,60.768,502.751,84.768z"/>
	</g>
</g>
<g>
	<g>
		<path d="M472.351,23.168c-8-4.8-17.2-7.2-27.6-7.6c-2.4,0-4,1.6-4,4c0,2.4,1.6,4,4,4c8.8,0,16.8,2,23.6,6.4c0.8,0.4,1.2,0.4,2,0.4
			c1.2,0,2.8-0.8,3.6-2C474.751,26.768,474.351,24.368,472.351,23.168z"/>
	</g>
</g>
<g>
	<g>
		<path d="M428.351,21.968c-0.4-2.4-2.4-3.6-4.8-3.2c-15.2,4.4-31.2,12.8-47.6,25.6c-1.6,1.2-2,4-0.8,5.6c0.8,1.2,2,1.6,3.2,1.6
			c0.8,0,1.6-0.4,2.4-0.8c15.6-12,30.8-20,44.8-24C427.551,26.368,428.751,23.968,428.351,21.968z"/>
	</g>
</g>
<g>
</g>
<g>
</g>
<g>
</g>
<g>
</g>
<g>
</g>
<g>
</g>
<g>
</g>
<g>
</g>
<g>
</g>
<g>
</g>
<g>
</g>
<g>
</g>
<g>
</g>
<g>
</g>
<g>
</g>
</svg>
